<?xml version="1.0" encoding="UTF-8" standalone="no"?>
<!-- Created with Inkscape (http://www.inkscape.org/) -->

<svg
   xmlns:dc="http://purl.org/dc/elements/1.1/"
   xmlns:cc="http://creativecommons.org/ns#"
   xmlns:rdf="http://www.w3.org/1999/02/22-rdf-syntax-ns#"
   xmlns:svg="http://www.w3.org/2000/svg"
   xmlns="http://www.w3.org/2000/svg"
   xmlns:sodipodi="http://sodipodi.sourceforge.net/DTD/sodipodi-0.dtd"
   xmlns:inkscape="http://www.inkscape.org/namespaces/inkscape"
   width="75mm"
   height="25mm"
   viewBox="0 0 75 25"
   version="1.1"
   id="svg8"
   inkscape:version="0.92.4 (5da689c313, 2019-01-14)"
   sodipodi:docname="searchLogos.svg">
  <defs
     id="defs2" />
  <sodipodi:namedview
     id="base"
     pagecolor="#ffffff"
     bordercolor="#666666"
     borderopacity="1.0"
     inkscape:pageopacity="0.0"
     inkscape:pageshadow="2"
     inkscape:zoom="0.98994949"
     inkscape:cx="353.07918"
     inkscape:cy="282.48294"
     inkscape:document-units="mm"
     inkscape:current-layer="layer1"
     showgrid="false"
     inkscape:snap-bbox="true"
     inkscape:bbox-nodes="true"
     inkscape:snap-smooth-nodes="true"
     inkscape:snap-grids="false"
     inkscape:snap-intersection-paths="true"
     inkscape:snap-bbox-edge-midpoints="true"
     inkscape:snap-global="true"
     inkscape:snap-page="true"
     inkscape:window-width="1920"
     inkscape:window-height="1027"
     inkscape:window-x="-8"
     inkscape:window-y="-8"
     inkscape:window-maximized="1" />
  <metadata
     id="metadata5">
    <rdf:RDF>
      <cc:Work
         rdf:about="">
        <dc:format>image/svg+xml</dc:format>
        <dc:type
           rdf:resource="http://purl.org/dc/dcmitype/StillImage" />
        <dc:title></dc:title>
      </cc:Work>
    </rdf:RDF>
  </metadata>
  <g
     inkscape:label="Layer 1"
     inkscape:groupmode="layer"
     id="layer1"
     transform="translate(0,-272)">
    <g
       id="g932"
       transform="matrix(0.98941573,0,0,0.98941573,-120.89936,47.610499)"
       style="stroke-width:1.01069748">
      <path
         id="path851"
         transform="scale(0.26458333)"
         d="m 484.13867,917.49805 -13.73242,13.73242 c 8.50941,12.59607 22.91801,20.92187 39.17383,20.92187 9.72254,0 18.78408,-2.97778 26.31836,-8.0664 l -13.73828,-13.73828 c -3.78249,1.85764 -8.04613,2.9082 -12.58008,2.9082 -11.23102,0 -20.83907,-6.38675 -25.44141,-15.75781 z"
         style="fill:#34a853;fill-opacity:1;stroke:#34a853;stroke-width:1.01069748px;stroke-linecap:butt;stroke-linejoin:miter;stroke-opacity:1"
         inkscape:connector-curvature="0" />
      <path
         id="path847"
         transform="scale(0.26458333)"
         d="m 509.58008,895.46094 v 18.89648 h 26.7539 c -2.45011,7.02897 -7.57328,12.74859 -14.17382,15.99024 l 13.73828,13.73828 c 12.59857,-8.50903 20.92578,-22.91998 20.92578,-39.17774 0,-3.23312 -0.33031,-6.39212 -0.95703,-9.44726 H 547.375 536.33398 Z"
         style="fill:#4285f4;fill-opacity:1;stroke:#4285f4;stroke-width:1.01069748px;stroke-linecap:butt;stroke-linejoin:miter;stroke-opacity:1"
         inkscape:connector-curvature="0" />
      <path
         id="path845"
         transform="scale(0.26458333)"
         d="m 470.40234,878.58984 c -5.08861,7.53427 -8.0664,16.59582 -8.0664,26.31836 0,9.72449 2.97985,18.78711 8.07031,26.32227 l 13.73242,-13.73242 c -1.85889,-3.78498 -2.90625,-8.05361 -2.90625,-12.58985 0,-4.53432 1.04491,-8.80236 2.90235,-12.58593 z"
         style="fill:#fbbc04;fill-opacity:1;stroke:#fbbc04;stroke-width:1.01069748px;stroke-linecap:butt;stroke-linejoin:miter;stroke-opacity:1"
         inkscape:connector-curvature="0" />
      <path
         id="path849"
         transform="scale(0.26458333)"
         d="m 509.58008,857.66406 c -16.25774,0 -30.66871,8.32722 -39.17774,20.92578 l 13.73243,13.73243 c 4.60143,-9.37306 14.2124,-15.75977 25.44531,-15.75977 4.53616,0 8.80504,1.0456 12.58984,2.9043 l 13.73047,-13.73047 c -7.53488,-5.08989 -16.59643,-8.07227 -26.32031,-8.07227 z"
         style="fill:#ea4335;fill-opacity:1;stroke:#ea4335;stroke-width:1.01069748px;stroke-linecap:butt;stroke-linejoin:miter;stroke-opacity:1"
         inkscape:connector-curvature="0" />
    </g>
    <g
       id="g951"
       transform="matrix(0.49291466,0,0,0.49323654,-45.460845,186.7129)"
       style="stroke:#ffba00;stroke-width:2.02808666;stroke-linejoin:bevel;stroke-miterlimit:4;stroke-dasharray:none;stroke-opacity:1">
      <path
         inkscape:connector-curvature="0"
         id="path945"
         d="m 149.13639,173.8799 10.95805,3.4745 0.13364,27.39514 -10.95805,9.88896 z"
         style="fill:#ffba00;fill-opacity:1;stroke:#ffba00;stroke-width:2.02808666;stroke-linecap:butt;stroke-linejoin:bevel;stroke-miterlimit:4;stroke-dasharray:none;stroke-opacity:1" />
      <path
         sodipodi:nodetypes="cccccccc"
         inkscape:connector-curvature="0"
         id="path947"
         d="m 163.83622,186.5752 4.74403,10.82442 7.684,3.20723 -26.99422,14.03165 10.82441,8.0849 28.33057,-16.57071 0.0668,-12.02712 z"
         style="fill:#ffba00;fill-opacity:1;stroke:#ffba00;stroke-width:2.02808666;stroke-linecap:butt;stroke-linejoin:bevel;stroke-miterlimit:4;stroke-dasharray:none;stroke-opacity:1" />
    </g>
    <g
       id="g970"
       transform="matrix(0.95998387,0,0,0.95999896,-162.17458,53.471685)"
       style="stroke-width:1.04167604">
      <rect
         y="228.15475"
         x="222.061"
         height="25"
         width="25"
         id="rect966"
         style="opacity:1;fill:#6f2b90;fill-opacity:1;stroke:#6f2b90;stroke-width:1.04167604;stroke-linecap:round;stroke-linejoin:miter;stroke-miterlimit:4;stroke-dasharray:none;stroke-dashoffset:0;stroke-opacity:1;paint-order:fill markers stroke" />
      <path
         sodipodi:nodetypes="cccccccccccccccccccccc"
         inkscape:connector-curvature="0"
         id="path964"
         d="m 223.45795,229.45721 h 10.48885 l -0.13363,1.384 -3.26817,0.69487 4.72472,9.5439 4.63021,-6.04762 -3.02382,-1.03944 -0.18899,-1.32291 h 8.97694 l -0.56697,1.5119 -2.92931,0.85045 -5.95313,8.03199 v 6.89807 h 3.40178 v 1.88988 H 229.3166 v -1.88988 h 3.40177 v -6.99256 l -6.2366,-11.43378 -2.75655,-0.34457 z"
         style="fill:#ffffff;stroke:none;stroke-width:0.27561009px;stroke-linecap:butt;stroke-linejoin:miter;stroke-opacity:1" />
    </g>
  </g>
</svg>
